<mxfile host="Electron" agent="Mozilla/5.0 (Macintosh; Intel Mac OS X 10_15_7) AppleWebKit/537.36 (KHTML, like Gecko) draw.io/26.2.2 Chrome/134.0.6998.178 Electron/35.1.2 Safari/537.36" version="26.2.2">
  <diagram id="R2lEEEUBdFMjLlhIrx00" name="Page-1">
    <mxGraphModel dx="1870" dy="685" grid="1" gridSize="10" guides="1" tooltips="1" connect="1" arrows="1" fold="1" page="1" pageScale="1" pageWidth="850" pageHeight="1100" math="0" shadow="0" extFonts="Permanent Marker^https://fonts.googleapis.com/css?family=Permanent+Marker">
      <root>
        <mxCell id="0" />
        <mxCell id="1" parent="0" />
        <mxCell id="Ugz8VagfwiTxpOUdSwOy-1" value="Banner" style="whiteSpace=wrap;html=1;align=center;" parent="1" vertex="1">
          <mxGeometry x="800" y="220" width="150" height="60" as="geometry" />
        </mxCell>
        <mxCell id="Ugz8VagfwiTxpOUdSwOy-34" value="" style="edgeStyle=orthogonalEdgeStyle;rounded=0;orthogonalLoop=1;jettySize=auto;html=1;endArrow=none;startFill=0;" parent="1" source="Ugz8VagfwiTxpOUdSwOy-2" target="Ugz8VagfwiTxpOUdSwOy-32" edge="1">
          <mxGeometry relative="1" as="geometry" />
        </mxCell>
        <mxCell id="Ugz8VagfwiTxpOUdSwOy-35" value="" style="edgeStyle=orthogonalEdgeStyle;rounded=0;orthogonalLoop=1;jettySize=auto;html=1;endArrow=none;startFill=0;" parent="1" source="Ugz8VagfwiTxpOUdSwOy-2" target="Ugz8VagfwiTxpOUdSwOy-33" edge="1">
          <mxGeometry relative="1" as="geometry" />
        </mxCell>
        <mxCell id="Ugz8VagfwiTxpOUdSwOy-2" value="Slot" style="whiteSpace=wrap;html=1;align=center;" parent="1" vertex="1">
          <mxGeometry x="-20" y="220" width="150" height="60" as="geometry" />
        </mxCell>
        <mxCell id="Ugz8VagfwiTxpOUdSwOy-29" value="" style="edgeStyle=orthogonalEdgeStyle;rounded=0;orthogonalLoop=1;jettySize=auto;html=1;endArrow=none;startFill=0;" parent="1" source="Ugz8VagfwiTxpOUdSwOy-4" target="Ugz8VagfwiTxpOUdSwOy-27" edge="1">
          <mxGeometry relative="1" as="geometry" />
        </mxCell>
        <mxCell id="Ugz8VagfwiTxpOUdSwOy-4" value="SocialDemographicGroup" style="whiteSpace=wrap;html=1;align=center;" parent="1" vertex="1">
          <mxGeometry x="360" y="433" width="150" height="60" as="geometry" />
        </mxCell>
        <mxCell id="Ugz8VagfwiTxpOUdSwOy-8" value="" style="edgeStyle=orthogonalEdgeStyle;rounded=0;orthogonalLoop=1;jettySize=auto;html=1;endArrow=ERone;startFill=0;endFill=0;" parent="1" source="Ugz8VagfwiTxpOUdSwOy-7" edge="1">
          <mxGeometry relative="1" as="geometry">
            <mxPoint x="800" y="250" as="targetPoint" />
          </mxGeometry>
        </mxCell>
        <mxCell id="Ugz8VagfwiTxpOUdSwOy-9" value="" style="edgeStyle=orthogonalEdgeStyle;rounded=0;orthogonalLoop=1;jettySize=auto;html=1;endArrow=ERmany;startFill=0;entryX=1;entryY=0.5;entryDx=0;entryDy=0;endFill=0;" parent="1" source="Ugz8VagfwiTxpOUdSwOy-7" target="Ugz8VagfwiTxpOUdSwOy-36" edge="1">
          <mxGeometry relative="1" as="geometry">
            <mxPoint x="510" y="250" as="targetPoint" />
          </mxGeometry>
        </mxCell>
        <mxCell id="Ugz8VagfwiTxpOUdSwOy-7" value="&lt;div style=&quot;text-align: start;&quot;&gt;&lt;span style=&quot;white-space-collapse: preserve;&quot;&gt;Count Shows/Clicks&lt;/span&gt;&lt;/div&gt;" style="shape=rhombus;perimeter=rhombusPerimeter;whiteSpace=wrap;html=1;align=center;" parent="1" vertex="1">
          <mxGeometry x="600" y="215" width="130" height="70" as="geometry" />
        </mxCell>
        <mxCell id="Ugz8VagfwiTxpOUdSwOy-18" value="" style="edgeStyle=orthogonalEdgeStyle;rounded=0;orthogonalLoop=1;jettySize=auto;html=1;endArrow=ERmany;startFill=0;exitX=1;exitY=0.5;exitDx=0;exitDy=0;entryX=0;entryY=0.5;entryDx=0;entryDy=0;endFill=0;" parent="1" source="Ugz8VagfwiTxpOUdSwOy-40" target="Ugz8VagfwiTxpOUdSwOy-36" edge="1">
          <mxGeometry relative="1" as="geometry">
            <mxPoint x="310" y="250" as="sourcePoint" />
            <mxPoint x="360" y="250" as="targetPoint" />
          </mxGeometry>
        </mxCell>
        <mxCell id="Ugz8VagfwiTxpOUdSwOy-21" value="" style="edgeStyle=orthogonalEdgeStyle;rounded=0;orthogonalLoop=1;jettySize=auto;html=1;entryX=0.5;entryY=1;entryDx=0;entryDy=0;endArrow=none;startFill=0;exitX=0.5;exitY=0;exitDx=0;exitDy=0;" parent="1" source="Ugz8VagfwiTxpOUdSwOy-41" target="Ugz8VagfwiTxpOUdSwOy-36" edge="1">
          <mxGeometry relative="1" as="geometry">
            <mxPoint x="435" y="330" as="sourcePoint" />
            <mxPoint x="435" y="280" as="targetPoint" />
          </mxGeometry>
        </mxCell>
        <mxCell id="Ugz8VagfwiTxpOUdSwOy-31" value="" style="edgeStyle=orthogonalEdgeStyle;rounded=0;orthogonalLoop=1;jettySize=auto;html=1;endArrow=none;startFill=0;" parent="1" source="Ugz8VagfwiTxpOUdSwOy-24" target="Ugz8VagfwiTxpOUdSwOy-1" edge="1">
          <mxGeometry relative="1" as="geometry" />
        </mxCell>
        <mxCell id="Ugz8VagfwiTxpOUdSwOy-24" value="ID" style="ellipse;whiteSpace=wrap;html=1;align=center;" parent="1" vertex="1">
          <mxGeometry x="825" y="130" width="100" height="40" as="geometry" />
        </mxCell>
        <mxCell id="Ugz8VagfwiTxpOUdSwOy-30" value="" style="edgeStyle=orthogonalEdgeStyle;rounded=0;orthogonalLoop=1;jettySize=auto;html=1;endArrow=none;startFill=0;" parent="1" source="Ugz8VagfwiTxpOUdSwOy-25" target="Ugz8VagfwiTxpOUdSwOy-1" edge="1">
          <mxGeometry relative="1" as="geometry" />
        </mxCell>
        <mxCell id="Ugz8VagfwiTxpOUdSwOy-25" value="Description" style="ellipse;whiteSpace=wrap;html=1;align=center;" parent="1" vertex="1">
          <mxGeometry x="1020" y="230" width="100" height="40" as="geometry" />
        </mxCell>
        <mxCell id="Ugz8VagfwiTxpOUdSwOy-26" value="ID" style="ellipse;whiteSpace=wrap;html=1;align=center;" parent="1" vertex="1">
          <mxGeometry x="200" y="443" width="100" height="40" as="geometry" />
        </mxCell>
        <mxCell id="Ugz8VagfwiTxpOUdSwOy-27" value="Description" style="ellipse;whiteSpace=wrap;html=1;align=center;" parent="1" vertex="1">
          <mxGeometry x="570" y="443" width="100" height="40" as="geometry" />
        </mxCell>
        <mxCell id="Ugz8VagfwiTxpOUdSwOy-28" value="" style="endArrow=none;html=1;rounded=0;exitX=1;exitY=0.5;exitDx=0;exitDy=0;entryX=0;entryY=0.5;entryDx=0;entryDy=0;" parent="1" source="Ugz8VagfwiTxpOUdSwOy-26" target="Ugz8VagfwiTxpOUdSwOy-4" edge="1">
          <mxGeometry width="50" height="50" relative="1" as="geometry">
            <mxPoint x="300" y="420" as="sourcePoint" />
            <mxPoint x="350" y="370" as="targetPoint" />
          </mxGeometry>
        </mxCell>
        <mxCell id="Ugz8VagfwiTxpOUdSwOy-32" value="ID" style="ellipse;whiteSpace=wrap;html=1;align=center;" parent="1" vertex="1">
          <mxGeometry x="5" y="130" width="100" height="40" as="geometry" />
        </mxCell>
        <mxCell id="Ugz8VagfwiTxpOUdSwOy-33" value="Description" style="ellipse;whiteSpace=wrap;html=1;align=center;" parent="1" vertex="1">
          <mxGeometry x="-160" y="230" width="100" height="40" as="geometry" />
        </mxCell>
        <mxCell id="Ugz8VagfwiTxpOUdSwOy-36" value="BannerStat" style="whiteSpace=wrap;html=1;align=center;" parent="1" vertex="1">
          <mxGeometry x="360" y="225" width="150" height="50" as="geometry" />
        </mxCell>
        <mxCell id="Ugz8VagfwiTxpOUdSwOy-69" style="edgeStyle=orthogonalEdgeStyle;rounded=0;orthogonalLoop=1;jettySize=auto;html=1;entryX=0.5;entryY=1;entryDx=0;entryDy=0;endArrow=none;startFill=0;startArrow=ERmany;" parent="1" source="Ugz8VagfwiTxpOUdSwOy-39" target="Ugz8VagfwiTxpOUdSwOy-62" edge="1">
          <mxGeometry relative="1" as="geometry" />
        </mxCell>
        <mxCell id="Ugz8VagfwiTxpOUdSwOy-70" style="edgeStyle=orthogonalEdgeStyle;rounded=0;orthogonalLoop=1;jettySize=auto;html=1;endArrow=none;startFill=0;endFill=0;startArrow=ERmany;" parent="1" source="Ugz8VagfwiTxpOUdSwOy-39" target="Ugz8VagfwiTxpOUdSwOy-66" edge="1">
          <mxGeometry relative="1" as="geometry" />
        </mxCell>
        <mxCell id="Ugz8VagfwiTxpOUdSwOy-71" style="edgeStyle=orthogonalEdgeStyle;rounded=0;orthogonalLoop=1;jettySize=auto;html=1;entryX=0.5;entryY=1;entryDx=0;entryDy=0;endArrow=none;startFill=0;startArrow=ERmany;" parent="1" source="Ugz8VagfwiTxpOUdSwOy-39" target="Ugz8VagfwiTxpOUdSwOy-72" edge="1">
          <mxGeometry relative="1" as="geometry">
            <mxPoint x="435" y="620" as="targetPoint" />
          </mxGeometry>
        </mxCell>
        <mxCell id="Ugz8VagfwiTxpOUdSwOy-39" value="RotationEvent" style="whiteSpace=wrap;html=1;align=center;" parent="1" vertex="1">
          <mxGeometry x="385" y="650" width="100" height="40" as="geometry" />
        </mxCell>
        <mxCell id="Ugz8VagfwiTxpOUdSwOy-43" value="" style="edgeStyle=orthogonalEdgeStyle;rounded=0;orthogonalLoop=1;jettySize=auto;html=1;endArrow=ERone;startFill=0;endFill=0;" parent="1" source="Ugz8VagfwiTxpOUdSwOy-40" target="Ugz8VagfwiTxpOUdSwOy-2" edge="1">
          <mxGeometry relative="1" as="geometry" />
        </mxCell>
        <mxCell id="Ugz8VagfwiTxpOUdSwOy-40" value="&lt;div style=&quot;text-align: start;&quot;&gt;&lt;span style=&quot;white-space-collapse: preserve;&quot;&gt;Count Shows/Clicks&lt;/span&gt;&lt;/div&gt;" style="shape=rhombus;perimeter=rhombusPerimeter;whiteSpace=wrap;html=1;align=center;" parent="1" vertex="1">
          <mxGeometry x="185" y="215" width="130" height="70" as="geometry" />
        </mxCell>
        <mxCell id="Ugz8VagfwiTxpOUdSwOy-42" value="" style="edgeStyle=orthogonalEdgeStyle;rounded=0;orthogonalLoop=1;jettySize=auto;html=1;endArrow=none;startFill=0;" parent="1" source="Ugz8VagfwiTxpOUdSwOy-41" target="Ugz8VagfwiTxpOUdSwOy-4" edge="1">
          <mxGeometry relative="1" as="geometry" />
        </mxCell>
        <mxCell id="Ugz8VagfwiTxpOUdSwOy-41" value="&lt;div style=&quot;text-align: start;&quot;&gt;&lt;span style=&quot;white-space-collapse: preserve;&quot;&gt;Count Shows/Clicks&lt;/span&gt;&lt;/div&gt;" style="shape=rhombus;perimeter=rhombusPerimeter;whiteSpace=wrap;html=1;align=center;" parent="1" vertex="1">
          <mxGeometry x="370" y="315" width="130" height="70" as="geometry" />
        </mxCell>
        <mxCell id="Ugz8VagfwiTxpOUdSwOy-44" value="1" style="text;html=1;align=center;verticalAlign=middle;resizable=0;points=[];autosize=1;strokeColor=none;fillColor=none;" parent="1" vertex="1">
          <mxGeometry x="435" y="403" width="30" height="30" as="geometry" />
        </mxCell>
        <mxCell id="Ugz8VagfwiTxpOUdSwOy-45" value="1" style="text;html=1;align=center;verticalAlign=middle;resizable=0;points=[];autosize=1;strokeColor=none;fillColor=none;" parent="1" vertex="1">
          <mxGeometry x="770" y="215" width="30" height="30" as="geometry" />
        </mxCell>
        <mxCell id="Ugz8VagfwiTxpOUdSwOy-47" value="N" style="text;html=1;align=center;verticalAlign=middle;resizable=0;points=[];autosize=1;strokeColor=none;fillColor=none;" parent="1" vertex="1">
          <mxGeometry x="510" y="208" width="30" height="30" as="geometry" />
        </mxCell>
        <mxCell id="Ugz8VagfwiTxpOUdSwOy-48" value="1" style="text;html=1;align=center;verticalAlign=middle;resizable=0;points=[];autosize=1;strokeColor=none;fillColor=none;" parent="1" vertex="1">
          <mxGeometry x="130" y="208" width="30" height="30" as="geometry" />
        </mxCell>
        <mxCell id="Ugz8VagfwiTxpOUdSwOy-49" value="N" style="text;html=1;align=center;verticalAlign=middle;resizable=0;points=[];autosize=1;strokeColor=none;fillColor=none;" parent="1" vertex="1">
          <mxGeometry x="325" y="208" width="30" height="30" as="geometry" />
        </mxCell>
        <mxCell id="Ugz8VagfwiTxpOUdSwOy-50" value="N" style="text;html=1;align=center;verticalAlign=middle;resizable=0;points=[];autosize=1;strokeColor=none;fillColor=none;" parent="1" vertex="1">
          <mxGeometry x="445" y="275" width="30" height="30" as="geometry" />
        </mxCell>
        <mxCell id="Ugz8VagfwiTxpOUdSwOy-51" value="SlotId" style="ellipse;whiteSpace=wrap;html=1;align=center;fontStyle=4;" parent="1" vertex="1">
          <mxGeometry x="225" y="120" width="100" height="40" as="geometry" />
        </mxCell>
        <mxCell id="Ugz8VagfwiTxpOUdSwOy-52" value="BannerId" style="ellipse;whiteSpace=wrap;html=1;align=center;fontStyle=4;" parent="1" vertex="1">
          <mxGeometry x="540" y="120" width="100" height="40" as="geometry" />
        </mxCell>
        <mxCell id="Ugz8VagfwiTxpOUdSwOy-53" value="GroupId" style="ellipse;whiteSpace=wrap;html=1;align=center;fontStyle=4;" parent="1" vertex="1">
          <mxGeometry x="385" y="120" width="100" height="40" as="geometry" />
        </mxCell>
        <mxCell id="Ugz8VagfwiTxpOUdSwOy-54" value="Shows" style="ellipse;whiteSpace=wrap;html=1;align=center;" parent="1" vertex="1">
          <mxGeometry x="285" y="50" width="100" height="40" as="geometry" />
        </mxCell>
        <mxCell id="Ugz8VagfwiTxpOUdSwOy-55" value="Clicks" style="ellipse;whiteSpace=wrap;html=1;align=center;" parent="1" vertex="1">
          <mxGeometry x="475" y="50" width="100" height="40" as="geometry" />
        </mxCell>
        <mxCell id="Ugz8VagfwiTxpOUdSwOy-56" value="" style="endArrow=none;html=1;rounded=0;entryX=0.5;entryY=0;entryDx=0;entryDy=0;exitX=0.5;exitY=1;exitDx=0;exitDy=0;" parent="1" source="Ugz8VagfwiTxpOUdSwOy-54" target="Ugz8VagfwiTxpOUdSwOy-36" edge="1">
          <mxGeometry relative="1" as="geometry">
            <mxPoint x="140" y="60" as="sourcePoint" />
            <mxPoint x="300" y="60" as="targetPoint" />
          </mxGeometry>
        </mxCell>
        <mxCell id="Ugz8VagfwiTxpOUdSwOy-57" value="" style="endArrow=none;html=1;rounded=0;exitX=0.5;exitY=1;exitDx=0;exitDy=0;entryX=0.5;entryY=0;entryDx=0;entryDy=0;" parent="1" source="Ugz8VagfwiTxpOUdSwOy-51" target="Ugz8VagfwiTxpOUdSwOy-36" edge="1">
          <mxGeometry relative="1" as="geometry">
            <mxPoint x="345" y="100" as="sourcePoint" />
            <mxPoint x="430" y="220" as="targetPoint" />
          </mxGeometry>
        </mxCell>
        <mxCell id="Ugz8VagfwiTxpOUdSwOy-58" value="" style="endArrow=none;html=1;rounded=0;entryX=0.5;entryY=0;entryDx=0;entryDy=0;exitX=0.5;exitY=1;exitDx=0;exitDy=0;" parent="1" source="Ugz8VagfwiTxpOUdSwOy-55" target="Ugz8VagfwiTxpOUdSwOy-36" edge="1">
          <mxGeometry relative="1" as="geometry">
            <mxPoint x="520" y="90" as="sourcePoint" />
            <mxPoint x="680" y="90" as="targetPoint" />
          </mxGeometry>
        </mxCell>
        <mxCell id="Ugz8VagfwiTxpOUdSwOy-59" value="" style="endArrow=none;html=1;rounded=0;entryX=0.5;entryY=0;entryDx=0;entryDy=0;exitX=0.5;exitY=1;exitDx=0;exitDy=0;" parent="1" source="Ugz8VagfwiTxpOUdSwOy-52" target="Ugz8VagfwiTxpOUdSwOy-36" edge="1">
          <mxGeometry relative="1" as="geometry">
            <mxPoint x="535" y="100" as="sourcePoint" />
            <mxPoint x="445" y="235" as="targetPoint" />
          </mxGeometry>
        </mxCell>
        <mxCell id="Ugz8VagfwiTxpOUdSwOy-60" value="" style="endArrow=none;html=1;rounded=0;exitX=0.5;exitY=1;exitDx=0;exitDy=0;entryX=0.5;entryY=0;entryDx=0;entryDy=0;" parent="1" source="Ugz8VagfwiTxpOUdSwOy-53" target="Ugz8VagfwiTxpOUdSwOy-36" edge="1">
          <mxGeometry relative="1" as="geometry">
            <mxPoint x="600" y="170" as="sourcePoint" />
            <mxPoint x="440" y="230" as="targetPoint" />
          </mxGeometry>
        </mxCell>
        <mxCell id="Ugz8VagfwiTxpOUdSwOy-62" value="Tracks" style="shape=rhombus;perimeter=rhombusPerimeter;whiteSpace=wrap;html=1;align=center;" parent="1" vertex="1">
          <mxGeometry x="815" y="450" width="120" height="60" as="geometry" />
        </mxCell>
        <mxCell id="Ugz8VagfwiTxpOUdSwOy-64" value="" style="endArrow=none;html=1;rounded=0;entryX=0.5;entryY=0;entryDx=0;entryDy=0;endFill=0;startFill=0;startArrow=ERone;" parent="1" target="Ugz8VagfwiTxpOUdSwOy-62" edge="1">
          <mxGeometry relative="1" as="geometry">
            <mxPoint x="875" y="280" as="sourcePoint" />
            <mxPoint x="790" y="580" as="targetPoint" />
          </mxGeometry>
        </mxCell>
        <mxCell id="Ugz8VagfwiTxpOUdSwOy-66" value="Tracks" style="shape=rhombus;perimeter=rhombusPerimeter;whiteSpace=wrap;html=1;align=center;" parent="1" vertex="1">
          <mxGeometry x="-5" y="450" width="120" height="60" as="geometry" />
        </mxCell>
        <mxCell id="Ugz8VagfwiTxpOUdSwOy-68" value="" style="endArrow=none;html=1;rounded=0;exitX=0.5;exitY=1;exitDx=0;exitDy=0;entryX=0.5;entryY=0;entryDx=0;entryDy=0;startArrow=ERone;startFill=0;" parent="1" source="Ugz8VagfwiTxpOUdSwOy-2" target="Ugz8VagfwiTxpOUdSwOy-66" edge="1">
          <mxGeometry relative="1" as="geometry">
            <mxPoint x="-70" y="650" as="sourcePoint" />
            <mxPoint x="90" y="650" as="targetPoint" />
          </mxGeometry>
        </mxCell>
        <mxCell id="Ugz8VagfwiTxpOUdSwOy-73" style="edgeStyle=orthogonalEdgeStyle;rounded=0;orthogonalLoop=1;jettySize=auto;html=1;entryX=0.5;entryY=1;entryDx=0;entryDy=0;endArrow=ERone;startFill=0;endFill=0;" parent="1" source="Ugz8VagfwiTxpOUdSwOy-72" target="Ugz8VagfwiTxpOUdSwOy-4" edge="1">
          <mxGeometry relative="1" as="geometry" />
        </mxCell>
        <mxCell id="Ugz8VagfwiTxpOUdSwOy-72" value="Tracks" style="shape=rhombus;perimeter=rhombusPerimeter;whiteSpace=wrap;html=1;align=center;" parent="1" vertex="1">
          <mxGeometry x="375" y="540" width="120" height="60" as="geometry" />
        </mxCell>
        <mxCell id="Ugz8VagfwiTxpOUdSwOy-74" value="Type" style="ellipse;whiteSpace=wrap;html=1;align=center;" parent="1" vertex="1">
          <mxGeometry x="80" y="774" width="100" height="40" as="geometry" />
        </mxCell>
        <mxCell id="Ugz8VagfwiTxpOUdSwOy-77" value="SlotId" style="ellipse;whiteSpace=wrap;html=1;align=center;fontStyle=4;" parent="1" vertex="1">
          <mxGeometry x="230" y="774" width="100" height="40" as="geometry" />
        </mxCell>
        <mxCell id="Ugz8VagfwiTxpOUdSwOy-78" value="BannerId" style="ellipse;whiteSpace=wrap;html=1;align=center;fontStyle=4;" parent="1" vertex="1">
          <mxGeometry x="385" y="774" width="100" height="40" as="geometry" />
        </mxCell>
        <mxCell id="Ugz8VagfwiTxpOUdSwOy-79" value="GroupId" style="ellipse;whiteSpace=wrap;html=1;align=center;fontStyle=4;" parent="1" vertex="1">
          <mxGeometry x="540" y="774" width="100" height="40" as="geometry" />
        </mxCell>
        <mxCell id="Ugz8VagfwiTxpOUdSwOy-80" value="Timestamp" style="ellipse;whiteSpace=wrap;html=1;align=center;" parent="1" vertex="1">
          <mxGeometry x="700" y="774" width="100" height="40" as="geometry" />
        </mxCell>
        <mxCell id="Ugz8VagfwiTxpOUdSwOy-82" value="" style="endArrow=none;html=1;rounded=0;entryX=0.5;entryY=1;entryDx=0;entryDy=0;exitX=0.5;exitY=0;exitDx=0;exitDy=0;startArrow=none;startFill=0;" parent="1" source="Ugz8VagfwiTxpOUdSwOy-74" target="Ugz8VagfwiTxpOUdSwOy-39" edge="1">
          <mxGeometry relative="1" as="geometry">
            <mxPoint x="-120" y="760" as="sourcePoint" />
            <mxPoint x="40" y="760" as="targetPoint" />
          </mxGeometry>
        </mxCell>
        <mxCell id="Ugz8VagfwiTxpOUdSwOy-83" value="" style="endArrow=none;html=1;rounded=0;exitX=0.5;exitY=0;exitDx=0;exitDy=0;entryX=0.5;entryY=1;entryDx=0;entryDy=0;" parent="1" source="Ugz8VagfwiTxpOUdSwOy-77" target="Ugz8VagfwiTxpOUdSwOy-39" edge="1">
          <mxGeometry relative="1" as="geometry">
            <mxPoint x="340" y="750" as="sourcePoint" />
            <mxPoint x="500" y="750" as="targetPoint" />
          </mxGeometry>
        </mxCell>
        <mxCell id="Ugz8VagfwiTxpOUdSwOy-84" value="" style="endArrow=none;html=1;rounded=0;exitX=0.5;exitY=0;exitDx=0;exitDy=0;entryX=0.5;entryY=1;entryDx=0;entryDy=0;" parent="1" source="Ugz8VagfwiTxpOUdSwOy-78" target="Ugz8VagfwiTxpOUdSwOy-39" edge="1">
          <mxGeometry relative="1" as="geometry">
            <mxPoint x="290" y="784" as="sourcePoint" />
            <mxPoint x="445" y="700" as="targetPoint" />
          </mxGeometry>
        </mxCell>
        <mxCell id="Ugz8VagfwiTxpOUdSwOy-85" value="" style="endArrow=none;html=1;rounded=0;exitX=0.5;exitY=0;exitDx=0;exitDy=0;entryX=0.5;entryY=1;entryDx=0;entryDy=0;" parent="1" source="Ugz8VagfwiTxpOUdSwOy-79" target="Ugz8VagfwiTxpOUdSwOy-39" edge="1">
          <mxGeometry relative="1" as="geometry">
            <mxPoint x="445" y="784" as="sourcePoint" />
            <mxPoint x="445" y="700" as="targetPoint" />
          </mxGeometry>
        </mxCell>
        <mxCell id="Ugz8VagfwiTxpOUdSwOy-86" value="" style="endArrow=none;html=1;rounded=0;exitX=0.5;exitY=1;exitDx=0;exitDy=0;entryX=0.5;entryY=0;entryDx=0;entryDy=0;" parent="1" source="Ugz8VagfwiTxpOUdSwOy-39" target="Ugz8VagfwiTxpOUdSwOy-80" edge="1">
          <mxGeometry relative="1" as="geometry">
            <mxPoint x="600" y="784" as="sourcePoint" />
            <mxPoint x="445" y="700" as="targetPoint" />
          </mxGeometry>
        </mxCell>
        <mxCell id="Ugz8VagfwiTxpOUdSwOy-87" value="N" style="text;html=1;align=center;verticalAlign=middle;resizable=0;points=[];autosize=1;strokeColor=none;fillColor=none;" parent="1" vertex="1">
          <mxGeometry x="445" y="610" width="30" height="30" as="geometry" />
        </mxCell>
        <mxCell id="Ugz8VagfwiTxpOUdSwOy-88" value="N" style="text;html=1;align=center;verticalAlign=middle;resizable=0;points=[];autosize=1;strokeColor=none;fillColor=none;" parent="1" vertex="1">
          <mxGeometry x="495" y="638" width="30" height="30" as="geometry" />
        </mxCell>
        <mxCell id="Ugz8VagfwiTxpOUdSwOy-89" value="1" style="text;html=1;align=center;verticalAlign=middle;resizable=0;points=[];autosize=1;strokeColor=none;fillColor=none;" parent="1" vertex="1">
          <mxGeometry x="845" y="285" width="30" height="30" as="geometry" />
        </mxCell>
        <mxCell id="Ugz8VagfwiTxpOUdSwOy-90" value="N" style="text;html=1;align=center;verticalAlign=middle;resizable=0;points=[];autosize=1;strokeColor=none;fillColor=none;" parent="1" vertex="1">
          <mxGeometry x="355" y="638" width="30" height="30" as="geometry" />
        </mxCell>
        <mxCell id="Ugz8VagfwiTxpOUdSwOy-91" value="1" style="text;html=1;align=center;verticalAlign=middle;resizable=0;points=[];autosize=1;strokeColor=none;fillColor=none;" parent="1" vertex="1">
          <mxGeometry x="435" y="493" width="30" height="30" as="geometry" />
        </mxCell>
        <mxCell id="Ugz8VagfwiTxpOUdSwOy-92" value="1" style="text;html=1;align=center;verticalAlign=middle;resizable=0;points=[];autosize=1;strokeColor=none;fillColor=none;" parent="1" vertex="1">
          <mxGeometry x="60" y="280" width="30" height="30" as="geometry" />
        </mxCell>
      </root>
    </mxGraphModel>
  </diagram>
</mxfile>
